mtllib EffFoxBlasterBullet.mtl

v 0.000000 -0.000001 10.500000
v 0.000000 0.300048 8.500000
v -0.300049 -0.000001 8.500000
v 0.300049 -0.000001 8.500000
v 0.000000 -0.300050 8.500000
v 0.199951 0.000001 3.000000
v 0.000000 -0.199951 3.000000
v 0.000000 0.000001 0.500000
v -0.199951 0.000001 3.000000
v 0.000000 0.199952 3.000000

vt 0.000000 1.000000
vt 0.000000 1.000000
vt 0.000000 1.000000
vt 0.000000 1.000000
vt 0.000000 1.000000
vt 0.000000 1.000000
vt 0.000000 1.000000
vt 0.000000 1.000000
vt 0.000000 1.000000
vt 0.000000 1.000000

vn 0.000000 -0.000000 1.000000
vn 0.000000 0.999928 0.011963
vn -0.981103 -0.192693 0.017517
vn 0.999644 -0.000000 0.026673
vn 0.192693 -0.981103 0.017517
vn 0.999616 0.000000 -0.027709
vn -0.321964 -0.946299 -0.029297
vn 0.000000 0.000000 -1.000000
vn -0.946299 0.321964 -0.029297
vn 0.000000 0.999298 -0.037476

g polygon0
s 1
usemtl mat2
f 1/1/1 2/2/2 3/3/3
f 1/1/1 4/4/4 2/2/2
f 5/5/5 4/4/4 1/1/1
f 5/5/5 6/6/6 4/4/4
f 7/7/7 6/6/6 5/5/5
f 7/7/7 8/8/8 6/6/6
f 9/9/9 8/8/8 7/7/7
f 9/9/9 10/10/10 8/8/8
f 2/2/2 10/10/10 9/9/9
f 2/2/2 6/6/6 10/10/10
f 4/4/4 6/6/6 2/2/2
f 9/9/9 3/3/3 2/2/2
f 9/9/9 7/7/7 3/3/3
f 5/5/5 3/3/3 7/7/7
f 5/5/5 1/1/1 3/3/3
f 10/10/10 6/6/6 8/8/8

v 0.000000 0.600097 9.000000
v 0.000000 -0.000002 11.000000
v -0.600098 -0.000001 9.000000
v 0.600098 -0.000001 9.000000
v 0.500000 0.000001 3.000000
v 0.000000 -0.600099 9.000000
v 0.000000 -0.499999 3.000000
v -0.500000 0.000001 3.000000
v 0.000000 0.500001 3.000000
v 0.000000 0.000001 -0.100098

vt 0.000000 1.000000
vt 0.000000 1.000000
vt 0.000000 1.000000
vt 0.000000 1.000000
vt 0.000000 1.000000
vt 0.000000 1.000000
vt 0.000000 1.000000
vt 0.000000 1.000000
vt 0.000000 1.000000
vt 0.000000 1.000000

vn 0.000000 -0.999486 -0.032043
vn 0.000000 0.000000 -1.000000
vn 0.971936 0.231387 -0.042420
vn -0.998053 0.000000 -0.062378
vn -0.999026 -0.000000 0.044129
vn -0.231387 0.971936 -0.042420
vn 0.272403 0.960887 0.049928
vn 0.960887 -0.272403 0.049927
vn 0.000000 -0.997833 0.065798
vn 0.000000 -0.000000 1.000000

g polygon1
s 1
usemtl mat3
f 11/11/11 12/12/12 13/13/13
f 11/11/11 14/14/14 12/12/12
f 15/15/15 14/14/14 11/11/11
f 15/15/15 16/16/16 14/14/14
f 17/17/17 16/16/16 15/15/15
f 17/17/17 13/13/13 16/16/16
f 18/18/18 13/13/13 17/17/17
f 18/18/18 11/11/11 13/13/13
f 19/19/19 11/11/11 18/18/18
f 19/19/19 15/15/15 11/11/11
f 20/20/20 15/15/15 19/19/19
f 20/20/20 17/17/17 15/15/15
f 18/18/18 17/17/17 20/20/20
f 16/16/16 12/12/12 14/14/14
f 16/16/16 13/13/13 12/12/12
f 18/18/18 20/20/20 19/19/19

v 0.000000 -0.000003 13.750000
v 0.000001 -4.000001 8.999998
v 0.000001 -4.000003 12.249998
v 0.000000 -2.185060 8.999999
v 0.000000 -0.000001 9.000000
v -0.000000 0.000005 -7.500000
v -0.000000 2.204100 9.000001
v -0.000001 4.000004 -4.499999
v -0.000001 3.999999 9.000002
v 0.000001 -3.999996 -4.500001
v -0.000001 3.999997 12.250002

vt 1.000000 0.500000
vt 0.500000 0.000000
vt 1.000000 0.000000
vt 0.500000 0.226868
vt 0.500000 0.500000
vt 0.000000 0.500000
vt 0.500000 0.775513
vt 0.000000 1.000000
vt 0.500000 1.000000
vt 0.000000 0.000000
vt 1.000000 1.000000

vn -1.000000 -0.000000 0.000000
vn -1.000000 -0.000000 0.000000
vn -1.000000 -0.000000 0.000000
vn -1.000000 -0.000000 0.000000
vn -1.000000 -0.000000 0.000000
vn -1.000000 -0.000000 0.000000
vn -1.000000 -0.000000 0.000000
vn -1.000000 -0.000000 0.000000
vn -1.000000 -0.000000 0.000000
vn -1.000000 -0.000000 0.000000
vn -1.000000 -0.000000 0.000000

g polygon2
s 1
usemtl mat1
f 21/21/21 22/22/22 23/23/23
f 21/21/21 24/24/24 22/22/22
f 25/25/25 24/24/24 21/21/21
f 25/25/25 26/26/26 24/24/24
f 27/27/27 26/26/26 25/25/25
f 27/27/27 28/28/28 26/26/26
f 29/29/29 28/28/28 27/27/27
f 24/24/24 30/30/30 22/22/22
f 24/24/24 26/26/26 30/30/30
f 21/21/21 27/27/27 25/25/25
f 21/21/21 31/31/31 27/27/27
f 31/31/31 29/29/29 27/27/27

